<?xml version="1.0" encoding="UTF-8"?>
<svg id="Ebene_2" data-name="Ebene 2" xmlns="http://www.w3.org/2000/svg" viewBox="0 0 240.21 240.21">
  <g id="Ebene_1-2" data-name="Ebene 1">
    <g>
      <path d="M238.13,120.1c0,65.18-52.84,118.02-118.02,118.02S2.08,185.29,2.08,120.1,54.92,2.08,120.1,2.08s118.02,52.84,118.02,118.02m2.08,0C240.21,53.77,186.44,0,120.1,0S0,53.77,0,120.1s53.77,120.1,120.1,120.1,120.1-53.77,120.1-120.1"/>
      <path d="M104.51,172.39l9.91,.13c1.55,8.89,3.35,17.83,4.53,26.77,.38,2.84,.32,5.72,.8,8.56,1.72-11.79,2.48-23.85,5.52-35.43l9.73-.04c2.49,10.32,6.56,19.67,12.12,28.66,.47,.76,.97,1.57,.56,2.48-1.62,3.56-7.93,10.46-10.74,13.53-4.46,4.86-10.55,12.31-16.39,15.35-4.62,2.41-25.86-24.97-29.29-29.17,5.97-10.07,10.34-19.46,13.27-30.83"/>
      <path d="M85.4,169.58c4.83,.67,9.6,1.67,14.4,2.54-1.33,11.49-7.37,30.03-20.71,32.15-7.8,1.24-13.86-.64-18.08-7.63-2.09-3.46-2.11-7.01-2.59-10.89,16.38,4.83,21.48-1.62,26.99-16.17"/>
      <path d="M150.33,159.75l-.08,1.29c-10.36,4.41-48.94,5.06-58.73-.2,6.81-6.76,49.39-4.57,58.81-1.1m-40.63-9.1c-5.92,.36-28.94,2.74-30.62,9.34-.7,2.75,2.48,4.75,4.51,5.77,13.41,6.68,45.36,5.15,60.24,3.33,4.7-.57,16.42-1.93,18.75-6.75,6.02-12.46-46.29-12.1-52.89-11.7"/>
      <path d="M101.36,149.08c-4.89,.66-9.66,1.96-14.47,3.05-3.75-6.35-6.42-13.67-12.16-18.59-8.9-7.62-24.65-4.72-27.59,7.45-1.03,4.27-.67,8.68-.42,13.02-8-.72-16.64-3.6-22.87-8.8-10.99-9.2-15.37-25.63-11.72-39.27,9.63-35.97,54.87-33.3,72.74-5.29,9.54,14.95,13.29,31.19,16.49,48.43"/>
      <path d="M119.7,7.67c10.39,10.43,23.98,20.99,31.39,33.79,16.07,27.79-.68,51.19-9.74,77.3-3.46,9.99-5.34,20.09-6.83,30.53-3.74-.14-7.47-.39-11.22-.49,.09-13.3-.86-26.92-1.39-40.24-.8-20.23-.62-40.55-.62-60.8,0-2.25-.17-4.56-1.64-6.39-2.74,5.4-1.81,58.67-1.55,68.32,.34,12.87-1.86,25.85-1.99,38.69-3.62,.23-7.21,.74-10.83,.94-1.59-12.04-4.13-23.66-8.61-34.98-12.09-30.57-26.12-55.94,.6-84.29,7.25-7.69,15.46-14.42,22.43-22.38"/>
      <path d="M138.85,149.08c4.89,.66,9.66,1.96,14.47,3.05,3.75-6.35,6.42-13.67,12.16-18.59,8.9-7.62,24.65-4.72,27.59,7.45,1.03,4.27,.67,8.68,.42,13.02,8-.72,16.64-3.6,22.87-8.8,10.99-9.2,15.37-25.63,11.72-39.27-9.63-35.97-54.87-33.3-72.74-5.29-9.54,14.95-13.29,31.19-16.49,48.43"/>
      <path d="M153.61,169.58c-4.83,.67-9.6,1.67-14.4,2.54,1.33,11.49,7.37,30.03,20.71,32.15,7.8,1.24,13.86-.64,18.08-7.63,2.09-3.46,2.11-7.01,2.59-10.89-16.38,4.83-21.48-1.62-26.99-16.17"/>
    </g>
  </g>
</svg>