<?xml version="1.0" encoding="UTF-8"?>
<svg id="Ebene_2" data-name="Ebene 2" xmlns="http://www.w3.org/2000/svg" viewBox="0 0 897.92 240.21">
  <defs>
    <style>
      .cls-1 {
        fill: #1a4b7e;
      }
    </style>
  </defs>
  <g id="Ebene_1-2" data-name="Ebene 1">
    <g>
      <g>
        <path class="cls-1" d="M238.13,120.1c0,65.18-52.84,118.02-118.02,118.02S2.08,185.29,2.08,120.1,54.92,2.08,120.1,2.08s118.02,52.84,118.02,118.02m2.08,0C240.21,53.77,186.44,0,120.1,0S0,53.77,0,120.1s53.77,120.1,120.1,120.1,120.1-53.77,120.1-120.1"/>
        <path class="cls-1" d="M104.51,172.39l9.91,.13c1.55,8.89,3.35,17.83,4.53,26.77,.38,2.84,.32,5.72,.8,8.56,1.72-11.79,2.48-23.85,5.52-35.43l9.73-.04c2.49,10.32,6.56,19.67,12.12,28.66,.47,.76,.97,1.57,.56,2.48-1.62,3.56-7.93,10.46-10.74,13.53-4.46,4.86-10.55,12.31-16.39,15.35-4.62,2.41-25.86-24.97-29.29-29.17,5.97-10.07,10.34-19.46,13.27-30.83"/>
        <path class="cls-1" d="M85.4,169.58c4.83,.67,9.6,1.67,14.4,2.54-1.33,11.49-7.37,30.03-20.71,32.15-7.8,1.24-13.86-.64-18.08-7.63-2.09-3.46-2.11-7.01-2.59-10.89,16.38,4.83,21.48-1.62,26.99-16.17"/>
        <path class="cls-1" d="M150.33,159.75l-.08,1.29c-10.36,4.41-48.94,5.06-58.73-.2,6.81-6.76,49.39-4.57,58.81-1.1m-40.63-9.1c-5.92,.36-28.94,2.74-30.62,9.34-.7,2.75,2.48,4.75,4.51,5.77,13.41,6.68,45.36,5.15,60.24,3.34,4.7-.57,16.42-1.93,18.75-6.75,6.02-12.46-46.29-12.1-52.89-11.7"/>
        <path class="cls-1" d="M101.36,149.08c-4.89,.66-9.66,1.96-14.47,3.05-3.75-6.35-6.42-13.67-12.16-18.59-8.9-7.62-24.65-4.72-27.59,7.45-1.03,4.27-.67,8.68-.42,13.02-8-.72-16.64-3.6-22.87-8.8-10.99-9.2-15.37-25.63-11.72-39.27,9.63-35.97,54.87-33.3,72.74-5.29,9.54,14.95,13.29,31.19,16.49,48.43"/>
        <path class="cls-1" d="M119.7,7.67c10.39,10.43,23.98,20.99,31.39,33.79,16.07,27.79-.68,51.19-9.74,77.3-3.46,9.99-5.34,20.09-6.83,30.53-3.74-.14-7.47-.39-11.22-.49,.09-13.3-.86-26.92-1.39-40.24-.8-20.23-.62-40.55-.62-60.8,0-2.25-.17-4.56-1.64-6.39-2.74,5.4-1.81,58.67-1.55,68.32,.34,12.87-1.86,25.85-1.99,38.69-3.62,.23-7.21,.74-10.83,.94-1.59-12.04-4.13-23.66-8.61-34.98-12.09-30.57-26.12-55.94,.6-84.29,7.25-7.69,15.46-14.42,22.43-22.38"/>
        <path class="cls-1" d="M138.85,149.08c4.89,.66,9.66,1.96,14.47,3.05,3.75-6.35,6.42-13.67,12.16-18.59,8.9-7.62,24.65-4.72,27.59,7.45,1.03,4.27,.67,8.68,.42,13.02,8-.72,16.64-3.6,22.87-8.8,10.99-9.2,15.37-25.63,11.72-39.27-9.63-35.97-54.87-33.3-72.74-5.29-9.54,14.95-13.29,31.19-16.49,48.43"/>
        <path class="cls-1" d="M153.61,169.58c-4.83,.67-9.6,1.67-14.4,2.54,1.33,11.49,7.37,30.03,20.71,32.15,7.8,1.24,13.86-.64,18.08-7.63,2.09-3.46,2.11-7.01,2.59-10.89-16.38,4.83-21.48-1.62-26.99-16.17"/>
      </g>
      <g>
        <path class="cls-1" d="M245.77,154.22h14.25c5.6,0,9.05,1.25,11.55,4.2,2.85,3.45,4.4,8.35,4.4,14s-1.55,10.6-4.4,14c-2.5,2.95-6,4.25-11.55,4.25h-14.25v-36.45Zm14.25,30.2c5.65,0,8.45-3.95,8.45-11.95s-2.8-12-8.45-12h-6.75v23.95h6.75Z"/>
        <path class="cls-1" d="M285.37,179.38c.1,2.55,.35,3.75,1,4.75,1,1.5,2.6,2.35,4.6,2.35,2.55,0,4.5-1.25,5.35-3.4h6.9c-1.55,5.35-6.45,8.75-12.5,8.75-7.65,0-12.35-5.3-12.35-13.95s4.75-14.65,12.5-14.65c5.45,0,9.8,2.95,11.6,7.85,.65,1.9,1.05,4.4,1.05,7.1,0,.35,0,.6-.05,1.2h-18.1Zm10.85-4.65c-.35-4-2.25-6.15-5.45-6.15s-4.85,2-5.3,6.15h10.75Z"/>
        <path class="cls-1" d="M323.87,190.68v-3.2c-2,3.05-4.45,4.35-8.1,4.35-5.8,0-9.05-3.35-9.05-9.35v-18.8h7v17.35c0,3.25,1.5,4.85,4.5,4.85,3.45,0,5.65-2.1,5.65-5.3v-16.9h7v27h-7Z"/>
        <path class="cls-1" d="M348.17,168.87h-3.9v14.7c0,2.4,.45,2.95,2.3,2.95,.55,0,.9-.05,1.6-.15v4.9c-1.3,.4-2.45,.55-4.05,.55-4.6,0-6.85-2.1-6.85-6.35v-16.6h-3.45v-4.65h3.45v-7.25h7v7.25h3.9v4.65Z"/>
        <path class="cls-1" d="M367.07,172.38c-.05-2.45-1.7-3.65-5.05-3.65-2.45,0-4.05,1-4.05,2.5,0,1.1,.5,1.5,2.45,2.1l8.85,2.55c3.55,1.05,5.3,3.3,5.3,6.8,0,2.65-1.2,5.15-3.2,6.75-2,1.6-4.85,2.4-8.6,2.4-8.2,0-12.55-3.05-12.75-9h6.85c.3,1.45,.6,2,1.35,2.55,.9,.65,2.3,.95,4.15,.95,3.25,0,5.2-1,5.2-2.65,0-1.1-.6-1.65-2.35-2.2l-8.35-2.6c-2.6-.85-3.45-1.3-4.4-2.25-.95-1.05-1.5-2.6-1.5-4.4,0-5.55,4.25-9,11.1-9,7.25,0,11.65,3.45,11.75,9.15h-6.75Z"/>
        <path class="cls-1" d="M394.52,173.77c-.8-3.55-2.15-4.9-5-4.9-2,0-3.55,.8-4.35,2.3-.85,1.6-1.35,3.95-1.35,6.55,0,5.3,2.1,8.45,5.65,8.45,2.8,0,4.2-1.35,5.05-4.85h6.7c-.65,6.45-5.2,10.5-11.75,10.5-8,0-12.65-5.2-12.65-14.1s4.65-14.5,12.75-14.5c6.8,0,11.15,3.95,11.65,10.55h-6.7Z"/>
        <path class="cls-1" d="M411.87,154.22v13.35c1.95-3,4.45-4.35,7.9-4.35,2.25,0,4.5,.75,6.05,2.05,1.85,1.55,2.75,3.95,2.75,7.3v18.1h-7v-16.5c0-1.7-.15-2.45-.8-3.35-.8-1.1-1.95-1.65-3.5-1.65-3.15,0-5.4,2.2-5.4,5.3v16.2h-7v-36.45h7Z"/>
        <path class="cls-1" d="M438.92,179.38c.1,2.55,.35,3.75,1,4.75,1,1.5,2.6,2.35,4.6,2.35,2.55,0,4.5-1.25,5.35-3.4h6.9c-1.55,5.35-6.45,8.75-12.5,8.75-7.65,0-12.35-5.3-12.35-13.95s4.75-14.65,12.5-14.65c5.45,0,9.8,2.95,11.6,7.85,.65,1.9,1.05,4.4,1.05,7.1,0,.35,0,.6-.05,1.2h-18.1Zm10.85-4.65c-.35-4-2.25-6.15-5.45-6.15s-4.85,2-5.3,6.15h10.75Z"/>
        <path class="cls-1" d="M467.52,163.67v5.3c1.55-3.65,4.3-5.75,7.5-5.75,.3,0,.45,0,.85,.05v7.1c-.95-.15-1.45-.2-2.2-.2-4.1,0-6.15,2.05-6.15,6.15v14.35h-7v-27h7Z"/>
        <path class="cls-1" d="M253.23,238.68h-7.5v-36.45h16.1c7.6,0,11.75,4,11.75,11.3s-4.3,12.15-11,12.15h-9.35v13Zm7-19.25c4,0,5.85-1.75,5.85-5.5s-1.85-5.45-5.85-5.45h-7v10.95h7Z"/>
        <path class="cls-1" d="M290.32,216.87h-4.15v21.8h-7v-21.8h-3.8v-4.65h3.8v-3.25c0-4.55,2.25-6.75,6.9-6.75,1.05,0,2.5,.05,4,.15v5.25c-.7-.1-1.35-.15-2-.15-1.3,0-1.9,.7-1.9,2.1v2.65h4.15v4.65Z"/>
        <path class="cls-1" d="M316.27,238.68h-7.6c-.65-.8-.8-1.3-.8-2.7-2.5,2.6-5.2,3.85-8.2,3.85-4.95,0-8.2-3.25-8.2-8.1s2.6-7.6,7.95-8.5l2.8-.5q3.45-.55,4.4-1.05c.75-.45,1.2-1.2,1.2-2.1,0-1.8-1.35-2.7-4.05-2.7-3.45,0-4.6,.9-4.95,3.7h-6.75c.45-6.25,4.25-9.35,11.55-9.35s11.05,2.8,11.05,8.3v15c0,1.35,.4,2.15,1.6,3.3v.85Zm-8.45-12.75c-.8,.4-1.1,.5-2.95,.85l-2.4,.45c-2.9,.6-4,1.6-4,3.7s1.45,3.25,3.8,3.25c3.55,0,5.55-2.3,5.55-6.35v-1.9Z"/>
        <path class="cls-1" d="M336.87,235.93c-1.75,2.7-4.05,3.9-7.45,3.9s-6.6-1.65-8.45-4.3c-1.8-2.6-2.9-6.3-2.9-9.95,0-8.15,4.9-14.35,11.35-14.35,3.4,0,5.7,1.25,7.45,3.95v-12.95h7v36.45h-7v-2.75Zm-11.8-10.35c0,4.95,2.4,8.4,5.9,8.4s5.9-3.4,5.9-8.3c0-5.2-2.35-8.6-5.9-8.6s-5.9,3.45-5.9,8.5Z"/>
        <path class="cls-1" d="M361.57,216.87h-4.15v21.8h-7v-21.8h-3.8v-4.65h3.8v-3.25c0-4.55,2.25-6.75,6.9-6.75,1.05,0,2.5,.05,4,.15v5.25c-.7-.1-1.35-.15-2-.15-1.3,0-1.9,.7-1.9,2.1v2.65h4.15v4.65Z"/>
        <path class="cls-1" d="M371.42,208.47h-7v-6.25h7v6.25Zm0,30.2h-7v-27h7v27Z"/>
        <path class="cls-1" d="M383.87,211.67v3.9c2-3.05,4.45-4.35,8.1-4.35,5.8,0,9.05,3.35,9.05,9.35v18.1h-7v-16.65c0-3.2-1.5-4.85-4.5-4.85-3.45,0-5.65,2.1-5.65,5.3v16.2h-7v-27h7Z"/>
        <path class="cls-1" d="M423.27,235.93c-1.75,2.7-4.05,3.9-7.45,3.9s-6.6-1.65-8.45-4.3c-1.8-2.6-2.9-6.3-2.9-9.95,0-8.15,4.9-14.35,11.35-14.35,3.4,0,5.7,1.25,7.45,3.95v-12.95h7v36.45h-7v-2.75Zm-11.8-10.35c0,4.95,2.4,8.4,5.9,8.4s5.9-3.4,5.9-8.3c0-5.2-2.35-8.6-5.9-8.6s-5.9,3.45-5.9,8.5Z"/>
        <path class="cls-1" d="M440.42,227.38c.1,2.55,.35,3.75,1,4.75,1,1.5,2.6,2.35,4.6,2.35,2.55,0,4.5-1.25,5.35-3.4h6.9c-1.55,5.35-6.45,8.75-12.5,8.75-7.65,0-12.35-5.3-12.35-13.95s4.75-14.65,12.5-14.65c5.45,0,9.8,2.95,11.6,7.85,.65,1.9,1.05,4.4,1.05,7.1,0,.35,0,.6-.05,1.2h-18.1Zm10.85-4.65c-.35-4-2.25-6.15-5.45-6.15s-4.85,2-5.3,6.15h10.75Z"/>
        <path class="cls-1" d="M469.02,211.67v5.3c1.55-3.65,4.3-5.75,7.5-5.75,.3,0,.45,0,.85,.05v7.1c-.95-.15-1.45-.2-2.2-.2-4.1,0-6.15,2.05-6.15,6.15v14.35h-7v-27h7Z"/>
        <path class="cls-1" d="M479.07,209.67l1.1-3.45,5.45,1.8v-5.8h3.6v5.8l5.4-1.8,1.1,3.5-5.4,1.75,3.35,4.7-2.9,2.15-3.35-4.7-3.4,4.7-2.9-2.15,3.35-4.7-5.4-1.8Z"/>
        <path class="cls-1" d="M506.47,208.47h-7v-6.25h7v6.25Zm0,30.2h-7v-27h7v27Z"/>
        <path class="cls-1" d="M518.92,211.67v3.9c2-3.05,4.45-4.35,8.1-4.35,5.8,0,9.05,3.35,9.05,9.35v18.1h-7v-16.65c0-3.2-1.5-4.85-4.5-4.85-3.45,0-5.65,2.1-5.65,5.3v16.2h-7v-27h7Z"/>
        <path class="cls-1" d="M548.22,211.67v3.9c2-3.05,4.45-4.35,8.1-4.35,5.8,0,9.05,3.35,9.05,9.35v18.1h-7v-16.65c0-3.2-1.5-4.85-4.5-4.85-3.45,0-5.65,2.1-5.65,5.3v16.2h-7v-27h7Z"/>
        <path class="cls-1" d="M575.47,227.38c.1,2.55,.35,3.75,1,4.75,1,1.5,2.6,2.35,4.6,2.35,2.55,0,4.5-1.25,5.35-3.4h6.9c-1.55,5.35-6.45,8.75-12.5,8.75-7.65,0-12.35-5.3-12.35-13.95s4.75-14.65,12.5-14.65c5.45,0,9.8,2.95,11.6,7.85,.65,1.9,1.05,4.4,1.05,7.1,0,.35,0,.6-.05,1.2h-18.1Zm10.85-4.65c-.35-4-2.25-6.15-5.45-6.15s-4.85,2-5.3,6.15h10.75Z"/>
        <path class="cls-1" d="M604.07,211.67v3.9c2-3.05,4.45-4.35,8.1-4.35,5.8,0,9.05,3.35,9.05,9.35v18.1h-7v-16.65c0-3.2-1.5-4.85-4.5-4.85-3.45,0-5.65,2.1-5.65,5.3v16.2h-7v-27h7Z"/>
        <path class="cls-1" d="M632.27,238.68l-9.45-27h7.4l5.85,19.75,5.45-19.75h7.4l-9.3,27h-7.35Z"/>
        <path class="cls-1" d="M655.92,227.38c.1,2.55,.35,3.75,1,4.75,1,1.5,2.6,2.35,4.6,2.35,2.55,0,4.5-1.25,5.35-3.4h6.9c-1.55,5.35-6.45,8.75-12.5,8.75-7.65,0-12.35-5.3-12.35-13.95s4.75-14.65,12.5-14.65c5.45,0,9.8,2.95,11.6,7.85,.65,1.9,1.05,4.4,1.05,7.1,0,.35,0,.6-.05,1.2h-18.1Zm10.85-4.65c-.35-4-2.25-6.15-5.45-6.15s-4.85,2-5.3,6.15h10.75Z"/>
        <path class="cls-1" d="M684.52,211.67v5.3c1.55-3.65,4.3-5.75,7.5-5.75,.3,0,.45,0,.85,.05v7.1c-.95-.15-1.45-.2-2.2-.2-4.1,0-6.15,2.05-6.15,6.15v14.35h-7v-27h7Z"/>
        <path class="cls-1" d="M702.47,202.22v12.95c1.7-2.7,4.05-3.95,7.45-3.95s6.6,1.7,8.45,4.35c1.8,2.6,2.9,6.3,2.9,9.95,0,8.15-4.9,14.3-11.35,14.3-3.4,0-5.75-1.25-7.45-3.9v2.75h-7v-36.45h7Zm0,23.2c0,5.2,2.35,8.55,5.9,8.55s5.9-3.45,5.9-8.4-2.45-8.5-5.9-8.5-5.9,3.4-5.9,8.35Z"/>
        <path class="cls-1" d="M748.02,238.68h-7.6c-.65-.8-.8-1.3-.8-2.7-2.5,2.6-5.2,3.85-8.2,3.85-4.95,0-8.2-3.25-8.2-8.1s2.6-7.6,7.95-8.5l2.8-.5q3.45-.55,4.4-1.05c.75-.45,1.2-1.2,1.2-2.1,0-1.8-1.35-2.7-4.05-2.7-3.45,0-4.6,.9-4.95,3.7h-6.75c.45-6.25,4.25-9.35,11.55-9.35s11.05,2.8,11.05,8.3v15c0,1.35,.4,2.15,1.6,3.3v.85Zm-8.45-12.75c-.8,.4-1.1,.5-2.95,.85l-2.4,.45c-2.9,.6-4,1.6-4,3.7s1.45,3.25,3.8,3.25c3.55,0,5.55-2.3,5.55-6.35v-1.9Z"/>
        <path class="cls-1" d="M758.52,211.67v3.9c2-3.05,4.45-4.35,8.1-4.35,5.8,0,9.05,3.35,9.05,9.35v18.1h-7v-16.65c0-3.2-1.5-4.85-4.5-4.85-3.45,0-5.65,2.1-5.65,5.3v16.2h-7v-27h7Z"/>
        <path class="cls-1" d="M797.92,235.93c-1.75,2.7-4.05,3.9-7.45,3.9s-6.6-1.65-8.45-4.3c-1.8-2.6-2.9-6.3-2.9-9.95,0-8.15,4.9-14.35,11.35-14.35,3.4,0,5.7,1.25,7.45,3.95v-12.95h7v36.45h-7v-2.75Zm-11.8-10.35c0,4.95,2.4,8.4,5.9,8.4s5.9-3.4,5.9-8.3c0-5.2-2.35-8.6-5.9-8.6s-5.9,3.45-5.9,8.5Z"/>
        <path class="cls-1" d="M827.72,227.38c.1,2.55,.35,3.75,1,4.75,1,1.5,2.6,2.35,4.6,2.35,2.55,0,4.5-1.25,5.35-3.4h6.9c-1.55,5.35-6.45,8.75-12.5,8.75-7.65,0-12.35-5.3-12.35-13.95s4.75-14.65,12.5-14.65c5.45,0,9.8,2.95,11.6,7.85,.65,1.9,1.05,4.4,1.05,7.1,0,.35,0,.6-.05,1.2h-18.1Zm10.85-4.65c-.35-4-2.25-6.15-5.45-6.15s-4.85,2-5.3,6.15h10.75Z"/>
        <path class="cls-1" d="M856.67,238.68h-7.5v-7.3h7.5v7.3Z"/>
        <path class="cls-1" d="M872.12,238.68l-12.3-36.45h7.55l8.1,27.45,7.95-27.45h7.55l-12.5,36.45h-6.35Z"/>
        <path class="cls-1" d="M897.92,238.68h-7.5v-7.3h7.5v7.3Z"/>
      </g>
    </g>
  </g>
</svg>